<svg width="83" height="84" viewBox="0 0 83 84" fill="none" xmlns="http://www.w3.org/2000/svg">
<path d="M56.875 45.4996C57.9858 45.4995 59.055 45.9218 59.8658 46.6809C60.6767 47.4401 61.1684 48.4793 61.2412 49.5876L61.25 49.8746V57.9334L70.7735 58.9921C72.4246 59.1756 73.9567 59.9404 75.0958 61.1497C76.2349 62.359 76.9067 63.934 76.9913 65.5931L77 65.9484V66.4996C77 70.1369 75.5844 73.6313 73.0529 76.2431C70.5215 78.8549 67.073 80.379 63.4375 80.4926L63 80.4996H61.8205C59.3048 80.4996 56.8356 79.8217 54.6726 78.5372C52.5096 77.2528 50.7326 75.4092 49.5285 73.2004L49.2993 72.7611L44.3257 62.8141C43.6957 61.5541 44.163 59.8689 45.633 59.2651C47.4583 58.5179 49.1925 58.3779 50.9792 59.2861C51.3678 59.4845 51.7492 59.726 52.1237 60.0106L52.5 60.3081V49.8746C52.5 48.7143 52.9609 47.6015 53.7814 46.781C54.6019 45.9606 55.7147 45.4996 56.875 45.4996ZM47.25 52.4996C47.7141 52.4996 48.1592 52.684 48.4874 53.0122C48.8156 53.3404 49 53.7855 49 54.2496C49 54.7138 48.8156 55.1589 48.4874 55.4871C48.1592 55.8153 47.7141 55.9996 47.25 55.9996H45.5C45.0359 55.9996 44.5908 55.8153 44.2626 55.4871C43.9344 55.1589 43.75 54.7138 43.75 54.2496C43.75 53.7855 43.9344 53.3404 44.2626 53.0122C44.5908 52.684 45.0359 52.4996 45.5 52.4996H47.25ZM68.25 50.7496C68.696 50.7501 69.1251 50.9209 69.4494 51.2271C69.7737 51.5333 69.9689 51.9518 69.9951 52.3971C70.0212 52.8423 69.8763 53.2808 69.59 53.6228C69.3038 53.9649 68.8977 54.1847 68.4548 54.2374L68.25 54.2496H66.5C66.054 54.2491 65.6249 54.0783 65.3006 53.7721C64.9763 53.4659 64.7811 53.0475 64.7549 52.6022C64.7288 52.1569 64.8737 51.7185 65.16 51.3764C65.4462 51.0344 65.8523 50.8146 66.2952 50.7619L66.5 50.7496H68.25ZM48.4872 44.2624L50.2372 46.0124C50.556 46.3424 50.7324 46.7845 50.7284 47.2433C50.7244 47.7022 50.5404 48.1411 50.2159 48.4656C49.8915 48.79 49.4525 48.9741 48.9937 48.9781C48.5349 48.982 48.0928 48.8057 47.7628 48.4869L46.0127 46.7369C45.694 46.4068 45.5176 45.9648 45.5216 45.5059C45.5256 45.0471 45.7096 44.6082 46.0341 44.2837C46.3585 43.9592 46.7975 43.7752 47.2563 43.7712C47.7151 43.7672 48.1572 43.9436 48.4872 44.2624ZM67.7372 44.2624C68.0653 44.5905 68.2496 45.0356 68.2496 45.4996C68.2496 45.9637 68.0653 46.4087 67.7372 46.7369L65.9872 48.4869C65.8258 48.654 65.6327 48.7873 65.4192 48.8791C65.2057 48.9708 64.9761 49.019 64.7437 49.0211C64.5113 49.0231 64.2809 48.9788 64.0658 48.8908C63.8508 48.8028 63.6554 48.6729 63.4911 48.5086C63.3267 48.3443 63.1968 48.1489 63.1088 47.9338C63.0208 47.7187 62.9765 47.4883 62.9786 47.2559C62.9806 47.0236 63.0289 46.7939 63.1206 46.5804C63.2123 46.3669 63.3456 46.1738 63.5128 46.0124L65.2628 44.2624C65.5909 43.9343 66.036 43.75 66.5 43.75C66.964 43.75 67.4091 43.9343 67.7372 44.2624Z" fill="black"/>
<path d="M45.7734 28.7941C46.136 26.0171 45.9019 23.1947 45.0866 20.5155C44.2713 17.8362 42.8936 15.3618 41.0457 13.2575C39.1977 11.1532 36.922 9.46751 34.3705 8.31297C31.819 7.15843 29.0505 6.56165 26.25 6.5625C21.0286 6.5625 16.021 8.63671 12.3288 12.3288C8.63671 16.021 6.5625 21.0286 6.5625 26.25C6.5625 31.4714 8.63671 36.479 12.3288 40.1712C16.021 43.8633 21.0286 45.9375 26.25 45.9375M19.6875 21.875H19.7094M32.8125 21.875H32.8344" stroke="black" stroke-width="5" stroke-linecap="round" stroke-linejoin="round"/>
<path d="M20.7812 32.8125C22.2206 34.2125 24.1938 35 26.25 35C28.3062 35 30.2794 34.2125 31.7188 32.8125M32.8125 41.5625L37.1875 45.9375L45.9375 37.1875" stroke="black" stroke-width="5" stroke-linecap="round" stroke-linejoin="round"/>
</svg>
