<svg width="88" height="84" viewBox="0 0 88 84" fill="none" xmlns="http://www.w3.org/2000/svg">
<path d="M47.2548 43.9951L37.5851 35.2947C34.8331 32.8163 33.4583 31.5758 31.7661 30.9287L31.7441 37.6047C31.7441 43.3602 31.7441 46.2391 33.5316 48.0266C35.319 49.814 38.198 49.814 43.9534 49.814H52.6953C51.8113 48.095 50.2241 46.6689 47.2548 43.9951Z" fill="black"/>
<path fill-rule="evenodd" clip-rule="evenodd" d="M34.1861 79.1164H24.4186C15.2104 79.1164 10.6051 79.1164 7.74564 76.2546C4.88623 73.3927 4.88379 68.7898 4.88379 59.5816V49.8141C4.88379 40.6059 4.88379 36.0006 7.74564 33.1412C10.6075 30.2817 15.2348 30.2793 24.4919 30.2793C25.9717 30.2793 27.156 30.2793 28.1547 30.3208C28.1221 30.5162 28.1058 30.7148 28.1058 30.9166L28.0814 37.8368C28.0814 40.5156 28.0814 42.8842 28.3378 44.7912C28.6162 46.8595 29.2535 48.9278 30.9433 50.6175C32.6282 52.3024 34.6989 52.9422 36.7671 53.2205C38.6742 53.4769 41.0428 53.4769 43.7215 53.4769H53.6159C53.7209 54.7809 53.7209 56.3827 53.7209 58.5145V59.5816C53.7209 68.7898 53.7209 73.3951 50.8591 76.2546C47.9972 79.114 43.3943 79.1164 34.1861 79.1164ZM25.6347 60.656C25.9974 60.9784 26.2173 61.4315 26.2461 61.9159C26.2749 62.4003 26.1104 62.8763 25.7885 63.2395L19.2761 70.565C19.1043 70.7583 18.8935 70.913 18.6576 71.0189C18.4217 71.1248 18.166 71.1796 17.9074 71.1796C17.6488 71.1796 17.3932 71.1248 17.1573 71.0189C16.9214 70.913 16.7106 70.7583 16.5388 70.565L13.2813 66.9022C12.9588 66.5389 12.7938 66.0624 12.8227 65.5774C12.8515 65.0925 13.0719 64.6388 13.4352 64.3163C13.7985 63.9938 14.275 63.8288 14.76 63.8577C15.2449 63.8865 15.6986 64.1068 16.0211 64.4702L17.9062 66.5946L23.0488 60.8074C23.2085 60.6271 23.4021 60.4801 23.6187 60.3747C23.8353 60.2694 24.0706 60.2078 24.311 60.1935C24.5515 60.1792 24.7923 60.2125 25.0199 60.2915C25.2474 60.3704 25.4572 60.4934 25.6371 60.6535" fill="black"/>
<g clip-path="url(#clip0_316_58)">
<path d="M54.1172 38.3621L72.9257 7.58712L68.0715 4.62109L52.6299 29.8878L45.822 24.4391L42.2673 28.8811L54.1172 38.3621ZM87.4999 8.53124H76.125V14.2187H87.4999V8.53124ZM87.4999 19.9062H70.4375V25.5937H87.4999V19.9062ZM87.4999 31.2812V36.9687H64.75V31.2812H87.4999Z" fill="black"/>
</g>
<defs>
<clipPath id="clip0_316_58">
<rect width="45.4999" height="45.4999" fill="white" transform="translate(42)"/>
</clipPath>
</defs>
</svg>
