<svg width="118" height="84" viewBox="0 0 118 84" fill="none" xmlns="http://www.w3.org/2000/svg">
<mask id="mask0_306_204" style="mask-type:luminance" maskUnits="userSpaceOnUse" x="72" y="38" width="41" height="41">
<path d="M92.5249 54.3697C93.4977 54.3697 94.4609 54.1781 95.3597 53.8058C96.2584 53.4336 97.075 52.8879 97.7628 52.2001C98.4507 51.5122 98.9963 50.6956 99.3686 49.7969C99.7408 48.8982 99.9324 47.935 99.9324 46.9622C99.9324 45.9894 99.7408 45.0262 99.3686 44.1275C98.9963 43.2287 98.4507 42.4121 97.7628 41.7243C97.075 41.0364 96.2584 40.4908 95.3597 40.1186C94.4609 39.7463 93.4977 39.5547 92.5249 39.5547C90.5603 39.5547 88.6762 40.3351 87.287 41.7243C85.8979 43.1135 85.1174 44.9976 85.1174 46.9622C85.1174 48.9268 85.8979 50.8109 87.287 52.2001C88.6762 53.5893 90.5603 54.3697 92.5249 54.3697ZM73.4771 76.3806V77.6505H111.573V76.3806C111.573 71.6398 111.573 69.2694 110.65 67.4577C109.838 65.8649 108.543 64.5698 106.951 63.7582C105.139 62.8354 102.768 62.8354 98.0277 62.8354H87.0222C82.2814 62.8354 79.911 62.8354 78.0993 63.7582C76.5065 64.5698 75.2114 65.8649 74.3998 67.4577C73.4771 69.2694 73.4771 71.6398 73.4771 76.3806Z" fill="#555555" stroke="white" stroke-width="2" stroke-linecap="round" stroke-linejoin="round"/>
</mask>
<g mask="url(#mask0_306_204)">
<path d="M67.1277 33.2051H117.922V83.9994H67.1277V33.2051Z" fill="black"/>
</g>
<mask id="mask1_306_204" style="mask-type:luminance" maskUnits="userSpaceOnUse" x="5" y="38" width="41" height="41">
<path d="M25.3972 54.3697C26.37 54.3697 27.3333 54.1781 28.232 53.8058C29.1307 53.4336 29.9473 52.8879 30.6351 52.2001C31.323 51.5122 31.8686 50.6956 32.2409 49.7969C32.6132 48.8982 32.8048 47.935 32.8048 46.9622C32.8048 45.9894 32.6132 45.0262 32.2409 44.1275C31.8686 43.2287 31.323 42.4121 30.6351 41.7243C29.9473 41.0364 29.1307 40.4908 28.232 40.1186C27.3333 39.7463 26.37 39.5547 25.3972 39.5547C23.4327 39.5547 21.5485 40.3351 20.1593 41.7243C18.7702 43.1135 17.9897 44.9976 17.9897 46.9622C17.9897 48.9268 18.7702 50.8109 20.1593 52.2001C21.5485 53.5893 23.4327 54.3697 25.3972 54.3697ZM6.34937 76.3806V77.6505H44.4451V76.3806C44.4451 71.6398 44.4451 69.2694 43.5224 67.4577C42.7107 65.8649 41.4157 64.5698 39.8228 63.7582C38.0112 62.8354 35.6408 62.8354 30.9 62.8354H19.8945C15.1537 62.8354 12.7833 62.8354 10.9717 63.7582C9.37879 64.5698 8.08375 65.8649 7.27213 67.4577C6.34937 69.2694 6.34937 71.6398 6.34937 76.3806Z" fill="#555555" stroke="white" stroke-width="2" stroke-linecap="round" stroke-linejoin="round"/>
</mask>
<g mask="url(#mask1_306_204)">
<path d="M0 33.2051H50.7944V83.9994H0V33.2051Z" fill="black"/>
</g>
<path d="M59.0414 32.7016C60.0388 32.7016 61.0265 32.5052 61.948 32.1234C62.8695 31.7417 63.7069 31.1823 64.4122 30.477C65.1175 29.7717 65.6769 28.9343 66.0586 28.0128C66.4404 27.0913 66.6368 26.1036 66.6368 25.1062C66.6368 24.1087 66.4404 23.1211 66.0586 22.1995C65.6769 21.278 65.1175 20.4407 64.4122 19.7354C63.7069 19.0301 62.8695 18.4706 61.948 18.0889C61.0265 17.7072 60.0388 17.5107 59.0414 17.5107C57.0269 17.5107 55.095 18.311 53.6706 19.7354C52.2462 21.1598 51.4459 23.0917 51.4459 25.1062C51.4459 27.1206 52.2462 29.0525 53.6706 30.477C55.095 31.9014 57.0269 32.7016 59.0414 32.7016ZM39.5103 55.2709V56.573H78.5725V55.2709C78.5725 50.4098 78.5725 47.9793 77.6263 46.1217C76.7941 44.4884 75.4662 43.1605 73.833 42.3283C71.9753 41.3821 69.5448 41.3821 64.6837 41.3821H53.3991C48.538 41.3821 46.1074 41.3821 44.2498 42.3283C42.6165 43.1605 41.2886 44.4884 40.4564 46.1217C39.5103 47.9793 39.5103 50.4098 39.5103 55.2709Z" fill="black" stroke="black" stroke-width="2" stroke-linecap="round" stroke-linejoin="round"/>
<path fill-rule="evenodd" clip-rule="evenodd" d="M86.6135 4.53278C86.9002 4.81989 87.0613 5.20908 87.0613 5.61487C87.0613 6.02065 86.9002 6.40984 86.6135 6.69695L82.5301 10.7803C82.243 11.0671 81.8538 11.2281 81.448 11.2281C81.0423 11.2281 80.6531 11.0671 80.3659 10.7803L78.3243 8.73863C78.0538 8.44835 77.9065 8.06442 77.9135 7.66772C77.9205 7.27102 78.0812 6.89253 78.3618 6.61198C78.6424 6.33142 79.0208 6.17072 79.4175 6.16372C79.8142 6.15672 80.1982 6.30397 80.4884 6.57445L81.448 7.53404L84.4493 4.53278C84.7364 4.24603 85.1256 4.08496 85.5314 4.08496C85.9372 4.08496 86.3264 4.24603 86.6135 4.53278ZM89.1043 7.65654C89.1043 8.50179 89.7903 9.18779 90.6356 9.18779H104.927C105.333 9.18779 105.723 9.02646 106.01 8.7393C106.297 8.45213 106.459 8.06265 106.459 7.65654C106.459 7.25043 106.297 6.86094 106.01 6.57378C105.723 6.28661 105.333 6.12529 104.927 6.12529H90.6356C90.2294 6.12529 89.84 6.28661 89.5528 6.57378C89.2656 6.86094 89.1043 7.25043 89.1043 7.65654ZM90.6356 14.8024C90.2294 14.8024 89.84 14.9637 89.5528 15.2509C89.2656 15.538 89.1043 15.9275 89.1043 16.3336C89.1043 16.7398 89.2656 17.1292 89.5528 17.4164C89.84 17.7036 90.2294 17.8649 90.6356 17.8649H104.927C105.333 17.8649 105.723 17.7036 106.01 17.4164C106.297 17.1292 106.459 16.7398 106.459 16.3336C106.459 15.9275 106.297 15.538 106.01 15.2509C105.723 14.9637 105.333 14.8024 104.927 14.8024H90.6356ZM86.6135 14.8636C86.8839 14.5734 87.0312 14.1894 87.0242 13.7927C87.0172 13.396 86.8565 13.0175 86.5759 12.737C86.2954 12.4564 85.9169 12.2957 85.5202 12.2887C85.1235 12.2817 84.7396 12.429 84.4493 12.6995L81.448 15.7007L80.4884 14.7411C80.1982 14.4707 79.8142 14.3234 79.4175 14.3304C79.0208 14.3374 78.6424 14.4981 78.3618 14.7787C78.0812 15.0592 77.9205 15.4377 77.9135 15.8344C77.9065 16.2311 78.0538 16.615 78.3243 16.9053L80.3659 18.947C80.6531 19.2337 81.0423 19.3948 81.448 19.3948C81.8538 19.3948 82.243 19.2337 82.5301 18.947L86.6135 14.8636ZM86.6135 21.3766C86.9002 21.6637 87.0613 22.0529 87.0613 22.4587C87.0613 22.8644 86.9002 23.2536 86.6135 23.5407L82.5301 27.6241C82.243 27.9108 81.8538 28.0719 81.448 28.0719C81.0423 28.0719 80.6531 27.9108 80.3659 27.6241L78.3243 25.5824C78.1738 25.4422 78.0532 25.2732 77.9695 25.0853C77.8858 24.8975 77.8408 24.6947 77.8372 24.4891C77.8335 24.2835 77.8713 24.0793 77.9484 23.8886C78.0254 23.698 78.14 23.5248 78.2854 23.3794C78.4308 23.234 78.604 23.1193 78.7947 23.0423C78.9854 22.9653 79.1896 22.9275 79.3952 22.9311C79.6008 22.9347 79.8035 22.9797 79.9914 23.0634C80.1792 23.1471 80.3483 23.2678 80.4884 23.4182L81.448 24.3778L84.4493 21.3766C84.7364 21.0898 85.1256 20.9288 85.5314 20.9288C85.9372 20.9288 86.3264 21.0898 86.6135 21.3766ZM90.6356 23.4795C90.2294 23.4795 89.84 23.6408 89.5528 23.928C89.2656 24.2152 89.1043 24.6046 89.1043 25.0107C89.1043 25.4169 89.2656 25.8063 89.5528 26.0935C89.84 26.3807 90.2294 26.542 90.6356 26.542H104.927C105.333 26.542 105.723 26.3807 106.01 26.0935C106.297 25.8063 106.459 25.4169 106.459 25.0107C106.459 24.6046 106.297 24.2152 106.01 23.928C105.723 23.6408 105.333 23.4795 104.927 23.4795H90.6356Z" fill="black"/>
</svg>
