<svg width="121" height="84" viewBox="0 0 121 84" fill="none" xmlns="http://www.w3.org/2000/svg">
<path d="M94.0162 53.6196C95.0137 53.6196 96.0014 53.4231 96.9229 53.0414C97.8444 52.6597 98.6817 52.1002 99.387 51.3949C100.092 50.6896 100.652 49.8523 101.034 48.9308C101.415 48.0093 101.612 47.0216 101.612 46.0241C101.612 45.0267 101.415 44.039 101.034 43.1175C100.652 42.196 100.092 41.3587 99.387 40.6534C98.6817 39.9481 97.8444 39.3886 96.9229 39.0069C96.0014 38.6252 95.0137 38.4287 94.0162 38.4287C92.0018 38.4287 90.0699 39.2289 88.6454 40.6534C87.221 42.0778 86.4208 44.0097 86.4208 46.0241C86.4208 48.0386 87.221 49.9705 88.6454 51.3949C90.0699 52.8194 92.0018 53.6196 94.0162 53.6196ZM74.4851 76.1889V77.491H113.547V76.1889C113.547 71.3278 113.547 68.8973 112.601 67.0396C111.769 65.4064 110.441 64.0785 108.808 63.2463C106.95 62.3001 104.52 62.3001 99.6586 62.3001H88.3739C83.5128 62.3001 81.0823 62.3001 79.2247 63.2463C77.5914 64.0785 76.2635 65.4064 75.4313 67.0396C74.4851 68.8973 74.4851 71.3278 74.4851 76.1889Z" fill="black" stroke="black" stroke-width="2" stroke-linecap="round" stroke-linejoin="round"/>
<path d="M26.0415 53.6196C27.0389 53.6196 28.0266 53.4231 28.9481 53.0414C29.8697 52.6597 30.707 52.1002 31.4123 51.3949C32.1176 50.6896 32.6771 49.8523 33.0588 48.9308C33.4405 48.0093 33.6369 47.0216 33.6369 46.0241C33.6369 45.0267 33.4405 44.039 33.0588 43.1175C32.6771 42.196 32.1176 41.3587 31.4123 40.6534C30.707 39.9481 29.8697 39.3886 28.9481 39.0069C28.0266 38.6252 27.0389 38.4287 26.0415 38.4287C24.0271 38.4287 22.0951 39.2289 20.6707 40.6534C19.2463 42.0778 18.4461 44.0097 18.4461 46.0241C18.4461 48.0386 19.2463 49.9705 20.6707 51.3949C22.0951 52.8194 24.0271 53.6196 26.0415 53.6196ZM6.51038 76.1889V77.491H45.5726V76.1889C45.5726 71.3278 45.5726 68.8973 44.6264 67.0396C43.7942 65.4064 42.4663 64.0785 40.8331 63.2463C38.9754 62.3001 36.5449 62.3001 31.6838 62.3001H20.3992C15.5381 62.3001 13.1076 62.3001 11.2499 63.2463C9.61666 64.0785 8.28877 65.4064 7.45655 67.0396C6.51038 68.8973 6.51038 71.3278 6.51038 76.1889Z" fill="black" stroke="black" stroke-width="2" stroke-linecap="round" stroke-linejoin="round"/>
<mask id="mask0_306_205" style="mask-type:luminance" maskUnits="userSpaceOnUse" x="39" y="15" width="42" height="42">
<path d="M60.0958 31.9184C61.0933 31.9184 62.0809 31.722 63.0025 31.3402C63.924 30.9585 64.7613 30.3991 65.4666 29.6938C66.1719 28.9885 66.7314 28.1511 67.1131 27.2296C67.4948 26.3081 67.6913 25.3204 67.6913 24.323C67.6913 23.3255 67.4948 22.3378 67.1131 21.4163C66.7314 20.4948 66.1719 19.6575 65.4666 18.9522C64.7613 18.2469 63.924 17.6874 63.0025 17.3057C62.0809 16.924 61.0933 16.7275 60.0958 16.7275C58.0814 16.7275 56.1495 17.5278 54.725 18.9522C53.3006 20.3766 52.5004 22.3085 52.5004 24.323C52.5004 26.3374 53.3006 28.2693 54.725 29.6938C56.1495 31.1182 58.0814 31.9184 60.0958 31.9184ZM40.5647 54.4877V55.7898H79.6269V54.4877C79.6269 49.6266 79.6269 47.1961 78.6808 45.3385C77.8486 43.7052 76.5207 42.3773 74.8874 41.5451C73.0298 40.5989 70.5992 40.5989 65.7381 40.5989H54.4535C49.5924 40.5989 47.1619 40.5989 45.3043 41.5451C43.671 42.3773 42.3431 43.7052 41.5109 45.3385C40.5647 47.1961 40.5647 49.6266 40.5647 54.4877Z" fill="#555555" stroke="white" stroke-width="2" stroke-linecap="round" stroke-linejoin="round"/>
</mask>
<g mask="url(#mask0_306_205)">
<path d="M34.0543 10.2168H86.1373V62.2998H34.0543V10.2168Z" fill="black"/>
</g>
<path d="M94.2167 27.8106C96.9742 27.8106 99.6464 26.8545 101.778 25.1051C103.91 23.3557 105.369 20.9214 105.907 18.2168C106.445 15.5123 106.028 12.7049 104.728 10.273C103.428 7.84109 101.325 5.93514 98.7777 4.8799C96.2301 3.82467 93.3954 3.68543 90.7566 4.48591C88.1179 5.2864 85.8383 6.97708 84.3063 9.26988C82.7743 11.5627 82.0847 14.3158 82.355 17.06C82.6253 19.8042 83.8388 22.3699 85.7887 24.3197" stroke="black" stroke-width="2" stroke-linecap="round"/>
<path d="M99.5141 13.2432L94.7491 18.9616C93.8817 20.0026 93.4473 20.5243 92.8633 20.5508C92.2793 20.5773 91.7999 20.0966 90.841 19.1378L88.9194 17.2162" stroke="black" stroke-width="2" stroke-linecap="round"/>
</svg>
