<svg width="83" height="84" viewBox="0 0 83 84" fill="none" xmlns="http://www.w3.org/2000/svg">
<path d="M50.1352 34.6959L42 41.0872V7.3046C42 6.82029 42.1924 6.35582 42.5348 6.01336C42.8773 5.67091 43.3418 5.47852 43.8261 5.47852H76.6957C77.18 5.47852 77.6444 5.67091 77.9869 6.01336C78.3293 6.35582 78.5217 6.82029 78.5217 7.3046V32.8698C78.5217 33.3541 78.3293 33.8186 77.9869 34.1611C77.6444 34.5035 77.18 34.6959 76.6957 34.6959H50.1352ZM58.9698 22.1343L54.4503 17.6147L51.8682 20.1986L58.9698 27.3003L69.3 16.9701L66.7179 14.388L58.9698 22.1343Z" fill="black"/>
<path opacity="0.25" d="M14.6087 81.5646H4.8696C4.22385 81.5646 3.60456 81.3081 3.14795 80.8515C2.69134 80.3949 2.43481 79.7756 2.43481 79.1298V59.6516C2.43481 59.0058 2.69134 58.3865 3.14795 57.9299C3.60456 57.4733 4.22385 57.2168 4.8696 57.2168H14.6087C15.2545 57.2168 15.8738 57.4733 16.3304 57.9299C16.787 58.3865 17.0435 59.0058 17.0435 59.6516V79.1298C17.0435 79.7756 16.787 80.3949 16.3304 80.8515C15.8738 81.3081 15.2545 81.5646 14.6087 81.5646Z" fill="black"/>
<path d="M34.087 81.5642H24.3479C23.7021 81.5642 23.0828 81.3077 22.6262 80.8511C22.1696 80.3945 21.9131 79.7752 21.9131 79.1295V30.4338C21.9131 29.7881 22.1696 29.1688 22.6262 28.7122C23.0828 28.2555 23.7021 27.999 24.3479 27.999H34.087C34.7327 27.999 35.352 28.2555 35.8087 28.7122C36.2653 29.1688 36.5218 29.7881 36.5218 30.4338V79.1295C36.5218 79.7752 36.2653 80.3945 35.8087 80.8511C35.352 81.3077 34.7327 81.5642 34.087 81.5642Z" fill="black"/>
<path opacity="0.5" d="M53.5653 81.5645H43.8261C43.1804 81.5645 42.5611 81.308 42.1045 80.8514C41.6479 80.3948 41.3914 79.7755 41.3914 79.1297V49.9123C41.3914 49.2666 41.6479 48.6473 42.1045 48.1907C42.5611 47.7341 43.1804 47.4775 43.8261 47.4775H53.5653C54.211 47.4775 54.8303 47.7341 55.2869 48.1907C55.7435 48.6473 56.0001 49.2666 56.0001 49.9123V79.1297C56.0001 79.7755 55.7435 80.3948 55.2869 80.8514C54.8303 81.308 54.211 81.5645 53.5653 81.5645Z" fill="black"/>
</svg>
