<svg width="140" height="140" viewBox="0 0 140 140" fill="none" xmlns="http://www.w3.org/2000/svg">
<path d="M46.6667 99.1665C40.25 99.1665 35 93.9165 35 87.4998V52.4998C35 49.4056 36.2292 46.4382 38.4171 44.2503C40.605 42.0623 43.5725 40.8332 46.6667 40.8332H64.1667V52.4998H46.6667V87.4998H64.1667V99.1665H46.6667ZM81.6667 99.1665C75.25 99.1665 70 93.9165 70 87.4998V52.4998C70 49.4056 71.2292 46.4382 73.4171 44.2503C75.605 42.0623 78.5725 40.8332 81.6667 40.8332H93.3333C99.8083 40.8332 105 46.0248 105 52.4998V87.4998C105 90.594 103.771 93.5615 101.583 95.7494C99.395 97.9373 96.4275 99.1665 93.3333 99.1665H81.6667ZM81.6667 87.4998H93.3333V52.4998H81.6667V87.4998Z" fill="black"/>
</svg>
