<svg width="48" height="48" viewBox="0 0 48 48" fill="none" xmlns="http://www.w3.org/2000/svg">
<g filter="url(#filter0_d_274_221)">
<circle cx="22" cy="22" r="20" fill="#D9D9D9"/>
<circle cx="22" cy="22" r="21" stroke="#B36F45" stroke-width="2"/>
</g>
<path d="M23.1136 11.167C24.3324 11.1702 24.951 11.1767 25.485 11.1919L25.6952 11.1995C25.9379 11.2082 26.1773 11.219 26.4665 11.232C27.6192 11.2862 28.4057 11.4682 29.0958 11.7357C29.8108 12.0109 30.4131 12.3836 31.0155 12.9848C31.5665 13.5262 31.9928 14.1813 32.2645 14.9045C32.5321 15.5946 32.7141 16.3811 32.7683 17.5348C32.7813 17.823 32.7921 18.0624 32.8008 18.3062L32.8073 18.5163C32.8235 19.0493 32.83 19.6679 32.8322 20.8867L32.8333 21.6948V23.114C32.8359 23.9042 32.8276 24.6944 32.8084 25.4843L32.8019 25.6945C32.7932 25.9382 32.7824 26.1777 32.7694 26.4658C32.7152 27.6196 32.531 28.405 32.2645 29.0962C31.9928 29.8193 31.5665 30.4744 31.0155 31.0158C30.4741 31.5669 29.819 31.9932 29.0958 32.2649C28.4057 32.5325 27.6192 32.7145 26.4665 32.7687L25.6952 32.8012L25.485 32.8077C24.951 32.8228 24.3324 32.8304 23.1136 32.8326L22.3055 32.8337H20.8874C20.0968 32.8364 19.3063 32.8281 18.516 32.8087L18.3058 32.8022C18.0486 32.7925 17.7915 32.7813 17.5345 32.7687C16.3818 32.7145 15.5953 32.5325 14.9041 32.2649C14.1814 31.9931 13.5266 31.5668 12.9855 31.0158C12.4341 30.4746 12.0074 29.8194 11.7354 29.0962C11.4678 28.4061 11.2858 27.6196 11.2316 26.4658L11.1991 25.6945L11.1937 25.4843C11.1737 24.6944 11.1647 23.9042 11.1666 23.114V20.8867C11.1636 20.0965 11.1716 19.3063 11.1905 18.5163L11.198 18.3062C11.2067 18.0624 11.2175 17.823 11.2305 17.5348C11.2847 16.3811 11.4667 15.5957 11.7343 14.9045C12.007 14.181 12.4344 13.5259 12.9866 12.9848C13.5274 12.434 14.1818 12.0077 14.9041 11.7357C15.5953 11.4682 16.3807 11.2862 17.5345 11.232C17.8226 11.219 18.0631 11.2082 18.3058 11.1995L18.516 11.193C19.3059 11.1737 20.0961 11.1654 20.8863 11.1681L23.1136 11.167ZM22 16.5837C20.5634 16.5837 19.1856 17.1543 18.1698 18.1702C17.154 19.186 16.5833 20.5637 16.5833 22.0003C16.5833 23.4369 17.154 24.8147 18.1698 25.8305C19.1856 26.8463 20.5634 27.417 22 27.417C23.4366 27.417 24.8143 26.8463 25.8301 25.8305C26.8459 24.8147 27.4166 23.4369 27.4166 22.0003C27.4166 20.5637 26.8459 19.186 25.8301 18.1702C24.8143 17.1543 23.4366 16.5837 22 16.5837ZM22 18.7503C22.4268 18.7503 22.8494 18.8342 23.2437 18.9975C23.6381 19.1608 23.9964 19.4001 24.2982 19.7018C24.6001 20.0036 24.8395 20.3618 25.0029 20.7561C25.1663 21.1504 25.2504 21.573 25.2505 21.9998C25.2506 22.4266 25.1666 22.8492 25.0033 23.2435C24.8401 23.6379 24.6007 23.9962 24.299 24.298C23.9972 24.5999 23.639 24.8393 23.2447 25.0027C22.8504 25.1661 22.4278 25.2503 22.001 25.2503C21.1391 25.2503 20.3124 24.9079 19.703 24.2984C19.0935 23.6889 18.751 22.8623 18.751 22.0003C18.751 21.1384 19.0935 20.3117 19.703 19.7022C20.3124 19.0927 21.1391 18.7503 22.001 18.7503M27.6885 14.9587C27.3294 14.9587 26.985 15.1013 26.731 15.3553C26.4771 15.6092 26.3344 15.9537 26.3344 16.3128C26.3344 16.672 26.4771 17.0164 26.731 17.2704C26.985 17.5243 27.3294 17.667 27.6885 17.667C28.0477 17.667 28.3921 17.5243 28.6461 17.2704C28.9 17.0164 29.0427 16.672 29.0427 16.3128C29.0427 15.9537 28.9 15.6092 28.6461 15.3553C28.3921 15.1013 28.0477 14.9587 27.6885 14.9587Z" fill="#B36F45"/>
<defs>
<filter id="filter0_d_274_221" x="0" y="0" width="48" height="48" filterUnits="userSpaceOnUse" color-interpolation-filters="sRGB">
<feFlood flood-opacity="0" result="BackgroundImageFix"/>
<feColorMatrix in="SourceAlpha" type="matrix" values="0 0 0 0 0 0 0 0 0 0 0 0 0 0 0 0 0 0 127 0" result="hardAlpha"/>
<feMorphology radius="1" operator="dilate" in="SourceAlpha" result="effect1_dropShadow_274_221"/>
<feOffset dx="2" dy="2"/>
<feGaussianBlur stdDeviation="0.5"/>
<feComposite in2="hardAlpha" operator="out"/>
<feColorMatrix type="matrix" values="0 0 0 0 0 0 0 0 0 0 0 0 0 0 0 0 0 0 0.25 0"/>
<feBlend mode="normal" in2="BackgroundImageFix" result="effect1_dropShadow_274_221"/>
<feBlend mode="normal" in="SourceGraphic" in2="effect1_dropShadow_274_221" result="shape"/>
</filter>
</defs>
</svg>
