<svg width="100" height="100" viewBox="0 0 100 100" fill="none" xmlns="http://www.w3.org/2000/svg">
<path d="M69 12.5H6.5V81.25H44V87.5H0.25V6.25H75.25V43.75H69V12.5ZM25.25 31.25H62.7437V25H25.25V31.25ZM12.75 31.25V25H19V31.25H12.75ZM25.25 50V43.75H44V50H25.25ZM12.75 50V43.75H19V50H12.75ZM25.25 68.75V62.5H37.75V68.75H25.25ZM56.5 62.5H44V68.75H56.5V81.25H62.75V68.75H75.25V62.5H62.75V50H56.5V62.5ZM12.75 68.75V62.5H19V68.75H12.75ZM59.625 37.5C63.3184 37.5 66.9757 38.2275 70.388 39.6409C73.8003 41.0543 76.9007 43.126 79.5124 45.7376C82.124 48.3493 84.1957 51.4497 85.6091 54.862C87.0225 58.2743 87.75 61.9316 87.75 65.625C87.75 69.3184 87.0225 72.9757 85.6091 76.388C84.1957 79.8003 82.124 82.9007 79.5124 85.5124C76.9007 88.124 73.8003 90.1957 70.388 91.6091C66.9757 93.0225 63.3184 93.75 59.625 93.75C52.1658 93.75 45.0121 90.7868 39.7376 85.5124C34.4632 80.2379 31.5 73.0842 31.5 65.625C31.5 58.1658 34.4632 51.0121 39.7376 45.7376C45.0121 40.4632 52.1658 37.5 59.625 37.5Z" fill="black"/>
<g clip-path="url(#clip0_268_5)">
<path d="M47 2.13184H100V39.8678H47V2.13184Z" fill="white"/>
<path d="M47 2.13184H100V5.03465H47V2.13184ZM47 7.93747H100V10.8403H47V7.93747ZM47 13.7429H100V16.6457H47V13.7429ZM47 19.5485H100V22.4513H47V19.5485ZM47 25.3539H100V28.2567H47V25.3539ZM47 31.1595H100V34.0624H47V31.1595ZM47 36.9649H100V39.8678H47V36.9649Z" fill="black"/>
<path d="M47 2.13184H68.2V22.4511H47V2.13184Z" fill="black"/>
<path d="M47.9961 3.78153L48.5012 4.27792L48.3083 5.08118L48.8132 4.58479L49.3183 5.08118L49.1253 4.27792L49.6303 3.78153H49.0061L48.8132 2.97852L48.6203 3.78153H47.9961ZM51.5109 3.78153L52.0158 4.27792L51.8229 5.08118L52.328 4.58479L52.8331 5.08118L52.6401 4.27792L53.145 3.78153H52.5209L52.328 2.97852L52.135 3.78153H51.5109ZM55.0257 3.78153L55.5306 4.27792L55.3377 5.08118L55.8427 4.58479L56.3477 5.08118L56.1547 4.27792L56.6598 3.78153H56.0357L55.8427 2.97852L55.6498 3.78153H55.0257ZM58.5404 3.78153L59.0454 4.27792L58.8524 5.08118L59.3575 4.58479L59.8624 5.08118L59.6695 4.27792L60.1746 3.78153H59.5503L59.3575 2.97852L59.1646 3.78153H58.5404ZM62.0551 3.78153L62.5601 4.27792L62.3672 5.08118L62.8721 4.58479L63.3772 5.08118L63.1843 4.27792L63.6892 3.78153H63.0651L62.8721 2.97852L62.6792 3.78153H62.0551ZM65.5698 3.78153L66.0747 4.27792L65.8818 5.08118L66.3869 4.58479L66.8918 5.08118L66.6989 4.27792L67.204 3.78153H66.5798L66.3869 2.97852L66.194 3.78153H65.5698ZM49.7534 5.81943L50.2585 6.31582L50.0656 7.11884L50.5707 6.62245L51.0756 7.11884L50.8827 6.31582L51.3877 5.81943H50.7634L50.5707 5.01618L50.3777 5.81943H49.7534ZM53.2682 5.81943L53.7733 6.31582L53.5804 7.11884L54.0853 6.62245L54.5904 7.11884L54.3974 6.31582L54.9023 5.81943H54.2782L54.0853 5.01618L53.8923 5.81943H53.2682ZM56.783 5.81943L57.2881 6.31582L57.0951 7.11884L57.6 6.62245L58.1051 7.11884L57.9122 6.31582L58.4171 5.81943H57.793L57.6 5.01618L57.4071 5.81943H56.783ZM60.2977 5.81943L60.8027 6.31582L60.6097 7.11884L61.1148 6.62245L61.6197 7.11884L61.4268 6.31582L61.9319 5.81943H61.3078L61.1148 5.01618L60.9219 5.81943H60.2977ZM63.8124 5.81943L64.3174 6.31582L64.1245 7.11884L64.6294 6.62245L65.1345 7.11884L64.9416 6.31582L65.4465 5.81943H64.8224L64.6294 5.01618L64.4367 5.81943H63.8124ZM47.9961 7.85709L48.5012 8.35348L48.3083 9.15674L48.8132 8.66035L49.3183 9.15674L49.1253 8.35348L49.6303 7.85709H49.0061L48.8132 7.05408L48.6203 7.85709H47.9961ZM51.5109 7.85709L52.0158 8.35348L51.8229 9.15674L52.328 8.66035L52.8331 9.15674L52.6401 8.35348L53.145 7.85709H52.5209L52.328 7.05408L52.135 7.85709H51.5109ZM55.0257 7.85709L55.5306 8.35348L55.3377 9.15674L55.8427 8.66035L56.3477 9.15674L56.1547 8.35348L56.6598 7.85709H56.0357L55.8427 7.05408L55.6498 7.85709H55.0257ZM58.5404 7.85709L59.0454 8.35348L58.8524 9.15674L59.3575 8.66035L59.8624 9.15674L59.6695 8.35348L60.1746 7.85709H59.5503L59.3575 7.05408L59.1646 7.85709H58.5404ZM62.0551 7.85709L62.5601 8.35348L62.3672 9.15674L62.8721 8.66035L63.3772 9.15674L63.1843 8.35348L63.6892 7.85709H63.0651L62.8721 7.05408L62.6792 7.85709H62.0551ZM65.5698 7.85709L66.0747 8.35348L65.8818 9.15674L66.3869 8.66035L66.8918 9.15674L66.6989 8.35348L67.204 7.85709H66.5798L66.3869 7.05408L66.194 7.85709H65.5698ZM49.7969 9.90169L50.3018 10.3981L50.109 11.2011L50.6139 10.7047L51.119 11.2011L50.9261 10.3978L51.431 9.90169H50.8069L50.6139 9.09843L50.421 9.90169H49.7969ZM53.3116 9.90169L53.8166 10.3981L53.6236 11.2011L54.1287 10.7047L54.6336 11.2011L54.4407 10.3978L54.9458 9.90169H54.3216L54.1287 9.09843L53.9358 9.90169H53.3116ZM56.8264 9.90169L57.3313 10.3981L57.1384 11.2011L57.6435 10.7047L58.1484 11.2011L57.9555 10.3978L58.4606 9.90169H57.8363L57.6435 9.09843L57.4506 9.90169H56.8264ZM60.341 9.90169L60.8461 10.3981L60.6532 11.2011L61.1581 10.7047L61.6632 11.2011L61.4703 10.3978L61.9752 9.90169H61.351L61.1581 9.09843L60.9652 9.90169H60.341ZM63.8558 9.90169L64.3607 10.3981L64.1678 11.2011L64.6729 10.7047L65.1778 11.2011L64.9849 10.3978L65.49 9.90169H64.8658L64.6729 9.09843L64.48 9.90169H63.8558ZM48.0494 11.9224L48.5545 12.4185L48.3616 13.2218L48.8665 12.7254L49.3716 13.2218L49.1787 12.4185L49.6836 11.9224H49.0595L48.8665 11.1191L48.6736 11.9224H48.0494ZM51.5642 11.9224L52.0691 12.4185L51.8762 13.2218L52.3813 12.7254L52.8862 13.2218L52.6935 12.4185L53.1984 11.9224H52.5742L52.3813 11.1191L52.1884 11.9224H51.5642ZM55.079 11.9224L55.5839 12.4185L55.391 13.2218L55.8961 12.7254L56.401 13.2218L56.2081 12.4185L56.7132 11.9224H56.089L55.8961 11.1191L55.7032 11.9224H55.079ZM58.5936 11.9224L59.0987 12.4185L58.9058 13.2218L59.4107 12.7254L59.9158 13.2218L59.7229 12.4185L60.228 11.9224H59.6036L59.4107 11.1191L59.218 11.9224H58.5936ZM62.1084 11.9224L62.6133 12.4185L62.4206 13.2218L62.9255 12.7254L63.4306 13.2218L63.2377 12.4185L63.7426 11.9224H63.1184L62.9255 11.1191L62.7326 11.9224H62.1084ZM65.6232 11.9224L66.1281 12.4185L65.9352 13.2218L66.4403 12.7254L66.9452 13.2218L66.7523 12.4185L67.2574 11.9224H66.6332L66.4403 11.1191L66.2474 11.9224H65.6232ZM48.0825 15.9332L48.5874 16.4296L48.3945 17.2328L48.8996 16.7364L49.4045 17.2328L49.2116 16.4296L49.7167 15.9332H49.0925L48.8996 15.1302L48.7066 15.9332H48.0825ZM51.5971 15.9332L52.1022 16.4296L51.9093 17.2328L52.4142 16.7364L52.9193 17.2328L52.7263 16.4296L53.2313 15.9332H52.6071L52.4142 15.1302L52.2213 15.9332H51.5971ZM55.1119 15.9332L55.6168 16.4296L55.424 17.2328L55.929 16.7364L56.434 17.2328L56.2411 16.4296L56.746 15.9332H56.1219L55.929 15.1302L55.736 15.9332H55.1119ZM58.6267 15.9332L59.1316 16.4296L58.9387 17.2328L59.4437 16.7364L59.9487 17.2328L59.7559 16.4296L60.2608 15.9332H59.6367L59.4437 15.1302L59.2508 15.9332H58.6267ZM62.1413 15.9332L62.6464 16.4296L62.4534 17.2328L62.9583 16.7364L63.4634 17.2328L63.2705 16.4296L63.7756 15.9332H63.1513L62.9583 15.1302L62.7656 15.9332H62.1413ZM65.656 15.9332L66.161 16.4296L65.9682 17.2328L66.4731 16.7364L66.9782 17.2328L66.7853 16.4296L67.2902 15.9332H66.6661L66.4731 15.1302L66.2802 15.9332H65.656ZM48.0396 19.9913L48.5445 20.4877L48.3515 21.2909L48.8566 20.7945L49.3616 21.2909L49.1686 20.4877L49.6737 19.9913H49.0494L48.8566 19.1883L48.6637 19.9913H48.0396ZM51.5542 19.9913L52.0593 20.4877L51.8663 21.2909L52.3712 20.7945L52.8763 21.2909L52.6834 20.4877L53.1883 19.9913H52.5642L52.3712 19.1883L52.1783 19.9913H51.5542ZM55.0689 19.9913L55.5739 20.4877L55.3811 21.2909L55.886 20.7945L56.3911 21.2909L56.1982 20.4877L56.7031 19.9913H56.0789L55.886 19.1883L55.6931 19.9913H55.0689ZM58.5837 19.9913L59.0886 20.4877L58.8957 21.2909L59.4008 20.7945L59.9057 21.2909L59.713 20.4877L60.2179 19.9913H59.5937L59.4008 19.1883L59.2079 19.9913H58.5837ZM62.0983 19.9913L62.6034 20.4877L62.4105 21.2909L62.9154 20.7945L63.4205 21.2909L63.2276 20.4877L63.7327 19.9913H63.1083L62.9154 19.1883L62.7227 19.9913H62.0983ZM65.6131 19.9913L66.118 20.4877L65.9253 21.2909L66.4302 20.7945L66.9353 21.2909L66.7424 20.4877L67.2473 19.9913H66.6231L66.4302 19.1883L66.2373 19.9913H65.6131ZM49.8073 13.9077L50.3122 14.4041L50.1195 15.2071L50.6244 14.7107L51.1295 15.2071L50.9365 14.4041L51.4414 13.9077H50.8173L50.6244 13.1044L50.4314 13.9077H49.8073ZM53.3221 13.9077L53.827 14.4041L53.6341 15.2071L54.1391 14.7107L54.6441 15.2071L54.4513 14.4041L54.9562 13.9077H54.3321L54.1391 13.1044L53.9462 13.9077H53.3221ZM56.8368 13.9077L57.3418 14.4041L57.1488 15.2071L57.6539 14.7107L58.1588 15.2071L57.9659 14.4041L58.471 13.9077H57.8469L57.6539 13.1044L57.461 13.9077H56.8368ZM60.3515 13.9077L60.8565 14.4041L60.6636 15.2071L61.1685 14.7107L61.6736 15.2071L61.4807 14.4041L61.9856 13.9077H61.3615L61.1685 13.1044L60.9756 13.9077H60.3515ZM63.8662 13.9077L64.3712 14.4041L64.1782 15.2071L64.6833 14.7107L65.1882 15.2071L64.9955 14.4041L65.5004 13.9077H64.8762L64.6833 13.1044L64.4904 13.9077H63.8662ZM49.7969 17.9594L50.3019 18.4557L50.109 19.259L50.6139 18.7626L51.119 19.259L50.9261 18.4557L51.431 17.9594H50.8069L50.6139 17.1563L50.421 17.9594H49.7969ZM53.3116 17.9594L53.8166 18.4557L53.6236 19.259L54.1287 18.7626L54.6338 19.259L54.4409 18.4557L54.9458 17.9594H54.3216L54.1287 17.1563L53.9358 17.9594H53.3116ZM56.8264 17.9594L57.3313 18.4557L57.1384 19.259L57.6435 18.7626L58.1484 19.259L57.9555 18.4557L58.4606 17.9594H57.8364L57.6435 17.1563L57.4506 17.9594H56.8264ZM60.341 17.9594L60.8461 18.4557L60.6532 19.259L61.1581 18.7626L61.6632 19.259L61.4703 18.4557L61.9752 17.9594H61.351L61.1581 17.1563L60.9652 17.9594H60.341ZM63.8558 17.9594L64.3607 18.4557L64.1678 19.259L64.6729 18.7626L65.1778 19.259L64.9851 18.4557L65.49 17.9594H64.8658L64.6729 17.1563L64.48 17.9594H63.8558Z" fill="white"/>
</g>
<defs>
<clipPath id="clip0_268_5">
<rect width="53" height="38" fill="white" transform="translate(47 2)"/>
</clipPath>
</defs>
</svg>
