<svg width="100" height="100" viewBox="0 0 100 100" fill="none" xmlns="http://www.w3.org/2000/svg">
<path d="M88.2429 8.74501C90.6726 8.74501 92.9456 9.56703 94.811 10.9837L92.9926 16.0382C91.6953 14.7158 90.0001 13.9854 88.2429 13.9919C84.3239 13.9919 81.1888 17.4899 81.1888 21.8623C81.1888 26.2347 84.3239 29.7327 88.2429 29.7327C89.8575 29.7327 91.331 29.138 92.5223 28.1236L94.3094 33.1082C92.4782 34.338 90.3802 34.9852 88.2429 34.9796C85.1247 34.9796 82.1344 33.5976 79.9295 31.1376C77.7247 28.6777 76.486 25.3412 76.486 21.8623C76.486 18.3834 77.7247 15.0469 79.9295 12.587C82.1344 10.127 85.1247 8.74501 88.2429 8.74501ZM71.7833 5.24707C73.0305 5.24707 74.2267 5.79987 75.1086 6.78386C75.9906 7.76784 76.486 9.10242 76.486 10.494C76.486 11.8856 75.9906 13.2201 75.1086 14.2041C74.2267 15.1881 73.0305 15.7409 71.7833 15.7409C70.5361 15.7409 69.3399 15.1881 68.458 14.2041C67.576 13.2201 67.0806 11.8856 67.0806 10.494C67.0806 9.10242 67.576 7.76784 68.458 6.78386C69.3399 5.79987 70.5361 5.24707 71.7833 5.24707ZM71.7833 8.74501C71.3675 8.74501 70.9688 8.92928 70.6749 9.25728C70.3809 9.58527 70.2157 10.0301 70.2157 10.494C70.2157 10.9578 70.3809 11.4027 70.6749 11.7307C70.9688 12.0587 71.3675 12.243 71.7833 12.243C72.199 12.243 72.5978 12.0587 72.8917 11.7307C73.1857 11.4027 73.3509 10.9578 73.3509 10.494C73.3509 10.0301 73.1857 9.58527 72.8917 9.25728C72.5978 8.92928 72.199 8.74501 71.7833 8.74501Z" fill="black"/>
<path d="M24.2328 43.9041C20.8672 43.9041 18.1073 40.7019 18.1073 36.8053C18.1073 32.9087 20.8672 29.668 24.2328 29.668C27.5985 29.668 30.3584 32.8701 30.3584 36.8053C30.3584 40.7405 27.5985 43.9041 24.2328 43.9041ZM24.2328 18.4025C25.3435 18.4025 26.2859 19.4828 26.2859 20.7945C26.3019 21.1123 26.261 21.4305 26.1659 21.7296C26.0708 22.0287 25.9234 22.3023 25.7327 22.5338C25.5421 22.7653 25.3122 22.9497 25.0572 23.0757C24.8022 23.2017 24.5274 23.2667 24.2497 23.2667C23.972 23.2667 23.6972 23.2017 23.4422 23.0757C23.1871 22.9497 22.9573 22.7653 22.7666 22.5338C22.576 22.3023 22.4286 22.0287 22.3335 21.7296C22.2383 21.4305 22.1975 21.1123 22.2134 20.7945C22.2134 19.4828 23.1222 18.4025 24.2328 18.4025ZM36.4503 15.4704H12.0154C8.64975 15.4704 5.88989 18.6726 5.88989 22.5692V51.0029C5.88989 54.8995 8.64975 58.1016 12.0154 58.1016H36.4503C39.8159 58.1016 42.5758 54.8995 42.5758 51.0029V22.5692C42.5758 18.6726 39.8159 15.4704 36.4503 15.4704ZM56.6443 64.0044V39.5059C56.6443 38.4257 55.9039 37.5769 54.9615 37.5769C54.0191 37.5769 53.2787 38.4257 53.2787 39.5059V64.0044C51.2054 64.5104 49.3685 65.877 48.121 67.8415C46.8735 69.8061 46.3036 72.2298 46.5207 74.6469C46.7378 77.0639 47.7267 79.3037 49.2972 80.9356C50.8677 82.5675 52.9091 83.4763 55.0288 83.4874C57.1616 83.4855 59.2173 82.5727 60.7946 80.9271C62.3719 79.2815 63.3576 77.0212 63.5594 74.5874C63.7613 72.1535 63.1646 69.7208 61.8861 67.764C60.6075 65.8073 58.7386 64.4669 56.6443 64.0044ZM55.0288 79.6294C52.1343 79.6294 49.812 76.9288 49.812 73.6495C49.812 70.3701 52.168 67.6695 55.0288 67.6695C57.8896 67.6695 60.2456 70.3701 60.2456 73.6495C60.2456 76.9288 57.9233 79.6294 55.0288 79.6294ZM72.3957 35.8794C73.3381 35.8794 74.0786 35.0306 74.0786 33.9504C74.0786 32.8701 73.3381 32.0214 72.3957 32.0214H64.1835V30.2081H67.1789C68.1213 30.2081 68.8617 29.3593 68.8617 28.2791C68.8617 27.1988 68.1213 26.3501 67.1789 26.3501H64.1835V24.5754H72.4967C73.4391 24.5754 74.1795 23.7266 74.1795 22.6464C74.1795 21.5661 73.4391 20.7174 72.4967 20.7174H63.544C62.885 18.7383 61.7189 17.0342 60.199 15.8292C58.6792 14.6241 56.8768 13.9745 55.0288 13.9658C49.9803 13.9658 45.8742 18.6726 45.8742 24.4596V59.722C43.9521 61.3112 42.39 63.4049 41.3184 65.828C40.2468 68.251 39.697 70.9329 39.715 73.6495C39.715 83.3331 46.581 91.2035 55.0288 91.2035C63.4767 91.2035 70.3427 83.3331 70.3427 73.6495C70.3427 67.9782 68.0876 62.9627 64.1835 59.6834V58.5646H72.3957C73.3381 58.5646 74.0786 57.7158 74.0786 56.6356C74.0786 55.5553 73.3381 54.7066 72.3957 54.7066H64.1835V52.8933H67.1453C68.0876 52.8933 68.8281 52.0445 68.8281 50.9643C68.8281 49.884 68.0876 49.0353 67.1453 49.0353H64.1835V47.222H72.3957C73.3381 47.222 74.0786 46.3732 74.0786 45.293C74.0786 44.2127 73.3381 43.364 72.3957 43.364H64.1835V41.5507H67.1789C68.1213 41.5507 68.8617 40.7019 68.8617 39.6217C68.8617 38.5414 68.1213 37.6927 67.1789 37.6927H64.1835V35.8794H72.3957ZM66.977 73.6495C66.977 77.2819 65.7182 80.7655 63.4774 83.334C61.2367 85.9025 58.1977 87.3454 55.0288 87.3454C51.86 87.3454 48.8209 85.9025 46.5802 83.334C44.3395 80.7655 43.0807 77.2819 43.0807 73.6495C43.0807 68.9813 45.0327 64.8532 48.4657 62.3069L48.5667 62.1911C48.6677 62.114 48.735 61.9982 48.836 61.9211C48.9033 61.8439 48.9706 61.7282 49.0042 61.651C49.0716 61.5353 49.1052 61.4195 49.1389 61.3038C49.1725 61.188 49.2062 61.0337 49.2062 60.918C49.2062 60.8408 49.2398 60.8022 49.2398 60.7251V24.4596C49.2398 22.6997 49.8498 21.0119 50.9354 19.7674C52.021 18.523 53.4935 17.8238 55.0288 17.8238C56.5641 17.8238 58.0366 18.523 59.1222 19.7674C60.2079 21.0119 60.8178 22.6997 60.8178 24.4596V60.6479C60.8178 60.7251 60.8514 60.7637 60.8514 60.8408C60.8514 60.9951 60.8851 61.1109 60.9188 61.2266C60.9524 61.3424 60.9861 61.4581 61.0534 61.5353C61.1207 61.651 61.1543 61.7282 61.2217 61.8439C61.289 61.9596 61.3563 62.0368 61.4573 62.114C61.4909 62.1525 61.5246 62.2297 61.5919 62.2683C64.9912 64.776 66.977 68.9041 66.977 73.6495Z" fill="black"/>
</svg>
