<svg width="330" height="330" viewBox="0 0 330 330" fill="none" xmlns="http://www.w3.org/2000/svg">
<g opacity="0.2">
<path d="M160.875 127.875C160.875 141.003 155.66 153.594 146.377 162.877C137.094 172.16 124.503 177.375 111.375 177.375C98.2468 177.375 85.6563 172.16 76.3732 162.877C67.0902 153.594 61.875 141.003 61.875 127.875C61.875 114.747 67.0902 102.156 76.3732 92.8732C85.6563 83.5902 98.2468 78.375 111.375 78.375C124.503 78.375 137.094 83.5902 146.377 92.8732C155.66 102.156 160.875 114.747 160.875 127.875Z" fill="black"/>
<path fill-rule="evenodd" clip-rule="evenodd" d="M111.375 144.375C115.751 144.375 119.948 142.637 123.042 139.542C126.137 136.448 127.875 132.251 127.875 127.875C127.875 123.499 126.137 119.302 123.042 116.208C119.948 113.113 115.751 111.375 111.375 111.375C106.999 111.375 102.802 113.113 99.7077 116.208C96.6134 119.302 94.875 123.499 94.875 127.875C94.875 132.251 96.6134 136.448 99.7077 139.542C102.802 142.637 106.999 144.375 111.375 144.375ZM111.375 177.375C117.875 177.375 124.312 176.095 130.318 173.607C136.323 171.119 141.78 167.473 146.377 162.877C150.973 158.28 154.619 152.823 157.107 146.818C159.595 140.812 160.875 134.375 160.875 127.875C160.875 121.375 159.595 114.938 157.107 108.932C154.619 102.927 150.973 97.4697 146.377 92.8732C141.78 88.2767 136.323 84.6306 130.318 82.143C124.312 79.6554 117.875 78.375 111.375 78.375C98.2468 78.375 85.6563 83.5902 76.3732 92.8732C67.0902 102.156 61.875 114.747 61.875 127.875C61.875 141.003 67.0902 153.594 76.3732 162.877C85.6563 172.16 98.2468 177.375 111.375 177.375Z" fill="black"/>
<path fill-rule="evenodd" clip-rule="evenodd" d="M112.2 189.75C105.636 189.75 99.3406 192.358 94.6991 196.999C90.0575 201.641 87.45 207.936 87.45 214.5V239.25C87.45 243.626 85.7116 247.823 82.6172 250.917C79.5229 254.012 75.326 255.75 70.95 255.75C66.5739 255.75 62.377 254.012 59.2827 250.917C56.1883 247.823 54.45 243.626 54.45 239.25V214.5C54.45 199.184 60.5343 184.495 71.3645 173.665C82.1948 162.834 96.8837 156.75 112.2 156.75C127.516 156.75 142.205 162.834 153.035 173.665C163.866 184.495 169.95 199.184 169.95 214.5V222.75C169.95 227.126 168.212 231.323 165.117 234.417C162.023 237.512 157.826 239.25 153.45 239.25C149.074 239.25 144.877 237.512 141.783 234.417C138.688 231.323 136.95 227.126 136.95 222.75V214.5C136.95 207.936 134.342 201.641 129.701 196.999C125.059 192.358 118.764 189.75 112.2 189.75Z" fill="black"/>
<path d="M210.375 127.875C210.375 141.003 215.59 153.594 224.873 162.877C234.156 172.16 246.747 177.375 259.875 177.375C273.003 177.375 285.594 172.16 294.877 162.877C304.16 153.594 309.375 141.003 309.375 127.875C309.375 114.747 304.16 102.156 294.877 92.8732C285.594 83.5902 273.003 78.375 259.875 78.375C246.747 78.375 234.156 83.5902 224.873 92.8732C215.59 102.156 210.375 114.747 210.375 127.875Z" fill="black"/>
<path fill-rule="evenodd" clip-rule="evenodd" d="M259.875 144.375C255.499 144.375 251.302 142.637 248.208 139.542C245.113 136.448 243.375 132.251 243.375 127.875C243.375 123.499 245.113 119.302 248.208 116.208C251.302 113.113 255.499 111.375 259.875 111.375C264.251 111.375 268.448 113.113 271.542 116.208C274.637 119.302 276.375 123.499 276.375 127.875C276.375 132.251 274.637 136.448 271.542 139.542C268.448 142.637 264.251 144.375 259.875 144.375ZM259.875 177.375C253.375 177.375 246.938 176.095 240.932 173.607C234.927 171.119 229.47 167.473 224.873 162.877C220.277 158.28 216.631 152.823 214.143 146.818C211.655 140.812 210.375 134.375 210.375 127.875C210.375 121.375 211.655 114.938 214.143 108.932C216.631 102.927 220.277 97.4697 224.873 92.8732C229.47 88.2767 234.927 84.6306 240.932 82.143C246.938 79.6554 253.375 78.375 259.875 78.375C273.003 78.375 285.594 83.5902 294.877 92.8732C304.16 102.156 309.375 114.747 309.375 127.875C309.375 141.003 304.16 153.594 294.877 162.877C285.594 172.16 273.003 177.375 259.875 177.375Z" fill="black"/>
<path fill-rule="evenodd" clip-rule="evenodd" d="M259.05 189.75C265.614 189.75 271.909 192.358 276.551 196.999C281.192 201.641 283.8 207.936 283.8 214.5V239.25C283.8 243.626 285.538 247.823 288.633 250.917C291.727 254.012 295.924 255.75 300.3 255.75C304.676 255.75 308.873 254.012 311.967 250.917C315.062 247.823 316.8 243.626 316.8 239.25V214.5C316.8 199.184 310.716 184.495 299.885 173.665C289.055 162.834 274.366 156.75 259.05 156.75C243.734 156.75 229.045 162.834 218.215 173.665C207.384 184.495 201.3 199.184 201.3 214.5V222.75C201.3 227.126 203.038 231.323 206.133 234.417C209.227 237.512 213.424 239.25 217.8 239.25C222.176 239.25 226.373 237.512 229.467 234.417C232.562 231.323 234.3 227.126 234.3 222.75V214.5C234.3 207.936 236.908 201.641 241.549 196.999C246.191 192.358 252.486 189.75 259.05 189.75Z" fill="black"/>
<path fill-rule="evenodd" clip-rule="evenodd" d="M186.45 235.125C179.886 235.125 173.591 237.733 168.949 242.374C164.308 247.016 161.7 253.311 161.7 259.875V284.625C161.7 289.001 159.962 293.198 156.867 296.292C153.773 299.387 149.576 301.125 145.2 301.125C140.824 301.125 136.627 299.387 133.533 296.292C130.438 293.198 128.7 289.001 128.7 284.625V259.875C128.7 244.559 134.784 229.87 145.615 219.04C156.445 208.209 171.134 202.125 186.45 202.125C201.766 202.125 216.455 208.209 227.285 219.04C238.116 229.87 244.2 244.559 244.2 259.875V284.625C244.2 289.001 242.462 293.198 239.367 296.292C236.273 299.387 232.076 301.125 227.7 301.125C223.324 301.125 219.127 299.387 216.033 296.292C212.938 293.198 211.2 289.001 211.2 284.625V259.875C211.2 253.311 208.592 247.016 203.951 242.374C199.309 237.733 193.014 235.125 186.45 235.125Z" fill="black"/>
<path d="M235.125 173.25C235.125 186.378 229.91 198.969 220.627 208.252C211.344 217.535 198.753 222.75 185.625 222.75C172.497 222.75 159.906 217.535 150.623 208.252C141.34 198.969 136.125 186.378 136.125 173.25C136.125 160.122 141.34 147.531 150.623 138.248C159.906 128.965 172.497 123.75 185.625 123.75C198.753 123.75 211.344 128.965 220.627 138.248C229.91 147.531 235.125 160.122 235.125 173.25Z" fill="black"/>
<path fill-rule="evenodd" clip-rule="evenodd" d="M185.625 189.75C190.001 189.75 194.198 188.012 197.292 184.917C200.387 181.823 202.125 177.626 202.125 173.25C202.125 168.874 200.387 164.677 197.292 161.583C194.198 158.488 190.001 156.75 185.625 156.75C181.249 156.75 177.052 158.488 173.958 161.583C170.863 164.677 169.125 168.874 169.125 173.25C169.125 177.626 170.863 181.823 173.958 184.917C177.052 188.012 181.249 189.75 185.625 189.75ZM185.625 222.75C198.753 222.75 211.344 217.535 220.627 208.252C229.91 198.969 235.125 186.378 235.125 173.25C235.125 160.122 229.91 147.531 220.627 138.248C211.344 128.965 198.753 123.75 185.625 123.75C172.497 123.75 159.906 128.965 150.623 138.248C141.34 147.531 136.125 160.122 136.125 173.25C136.125 186.378 141.34 198.969 150.623 208.252C159.906 217.535 172.497 222.75 185.625 222.75Z" fill="black"/>
<path d="M70.125 189.75H152.625V255.75H70.125V189.75ZM218.625 189.75H301.125V255.75H218.625V189.75Z" fill="black"/>
<path d="M152.625 222.75H218.625L226.875 301.125H144.375L152.625 222.75Z" fill="black"/>
</g>
<path fill-rule="evenodd" clip-rule="evenodd" d="M82.5 148.5C91.2521 148.5 99.6458 145.023 105.835 138.835C112.023 132.646 115.5 124.252 115.5 115.5C115.5 106.748 112.023 98.3542 105.835 92.1655C99.6458 85.9768 91.2521 82.5 82.5 82.5C73.7479 82.5 65.3542 85.9768 59.1655 92.1655C52.9768 98.3542 49.5 106.748 49.5 115.5C49.5 124.252 52.9768 132.646 59.1655 138.835C65.3542 145.023 73.7479 148.5 82.5 148.5ZM82.5 165C89.0004 165 95.4372 163.72 101.443 161.232C107.448 158.744 112.905 155.098 117.502 150.502C122.098 145.905 125.744 140.448 128.232 134.443C130.72 128.437 132 122 132 115.5C132 109 130.72 102.563 128.232 96.5572C125.744 90.5516 122.098 85.0947 117.502 80.4982C112.905 75.9017 107.448 72.2556 101.443 69.768C95.4372 67.2804 89.0004 66 82.5 66C69.3718 66 56.7813 71.2152 47.4982 80.4982C38.2152 89.7813 33 102.372 33 115.5C33 128.628 38.2152 141.219 47.4982 150.502C56.7813 159.785 69.3718 165 82.5 165Z" fill="black"/>
<path fill-rule="evenodd" clip-rule="evenodd" d="M63.591 146.784C64.3593 147.55 64.9688 148.461 65.3848 149.463C65.8007 150.465 66.0147 151.54 66.0147 152.625C66.0147 153.71 65.8007 154.785 65.3848 155.787C64.9688 156.789 64.3593 157.7 63.591 158.466L58.014 164.026C47.2813 174.762 41.2514 189.321 41.25 204.501V235.125C41.25 237.313 40.3808 239.411 38.8336 240.959C37.2865 242.506 35.188 243.375 33 243.375C30.812 243.375 28.7135 242.506 27.1664 240.959C25.6192 239.411 24.75 237.313 24.75 235.125V204.501C24.7523 184.945 32.5213 166.19 46.3485 152.361L51.909 146.784C52.6754 146.016 53.5857 145.406 54.588 144.99C55.5903 144.574 56.6648 144.36 57.75 144.36C58.8352 144.36 59.9097 144.574 60.912 144.99C61.9142 145.406 62.8246 146.016 63.591 146.784ZM258.159 141.834C257.391 142.6 256.781 143.511 256.365 144.513C255.949 145.515 255.735 146.59 255.735 147.675C255.735 148.76 255.949 149.835 256.365 150.837C256.781 151.839 257.391 152.75 258.159 153.516L263.736 159.076C274.469 169.812 280.499 184.371 280.5 199.551V235.125C280.5 237.313 281.369 239.411 282.916 240.959C284.464 242.506 286.562 243.375 288.75 243.375C290.938 243.375 293.036 242.506 294.584 240.959C296.131 239.411 297 237.313 297 235.125V199.551C296.998 179.995 289.229 161.24 275.402 147.411L269.841 141.834C269.075 141.066 268.164 140.456 267.162 140.04C266.16 139.624 265.085 139.41 264 139.41C262.915 139.41 261.84 139.624 260.838 140.04C259.836 140.456 258.925 141.066 258.159 141.834Z" fill="black"/>
<path fill-rule="evenodd" clip-rule="evenodd" d="M231 148.5C222.248 148.5 213.854 145.023 207.665 138.835C201.477 132.646 198 124.252 198 115.5C198 106.748 201.477 98.3542 207.665 92.1655C213.854 85.9768 222.248 82.5 231 82.5C239.752 82.5 248.146 85.9768 254.335 92.1655C260.523 98.3542 264 106.748 264 115.5C264 124.252 260.523 132.646 254.335 138.835C248.146 145.023 239.752 148.5 231 148.5ZM231 165C224.5 165 218.063 163.72 212.057 161.232C206.052 158.744 200.595 155.098 195.998 150.502C191.402 145.905 187.756 140.448 185.268 134.443C182.78 128.437 181.5 122 181.5 115.5C181.5 109 182.78 102.563 185.268 96.5572C187.756 90.5516 191.402 85.0947 195.998 80.4982C200.595 75.9017 206.052 72.2556 212.057 69.768C218.063 67.2804 224.5 66 231 66C244.128 66 256.719 71.2152 266.002 80.4982C275.285 89.7813 280.5 102.372 280.5 115.5C280.5 128.628 275.285 141.219 266.002 150.502C256.719 159.785 244.128 165 231 165ZM156.75 218.625C145.81 218.625 135.318 222.971 127.582 230.707C119.846 238.443 115.5 248.935 115.5 259.875V281.325C115.5 283.513 114.631 285.611 113.084 287.159C111.536 288.706 109.438 289.575 107.25 289.575C105.062 289.575 102.964 288.706 101.416 287.159C99.8692 285.611 99 283.513 99 281.325V259.875C99 244.559 105.084 229.87 115.915 219.04C126.745 208.209 141.434 202.125 156.75 202.125C172.066 202.125 186.755 208.209 197.585 219.04C208.416 229.87 214.5 244.559 214.5 259.875V281.325C214.5 283.513 213.631 285.611 212.084 287.159C210.536 288.706 208.438 289.575 206.25 289.575C204.062 289.575 201.964 288.706 200.416 287.159C198.869 285.611 198 283.513 198 281.325V259.875C198 254.458 196.933 249.094 194.86 244.089C192.787 239.085 189.749 234.537 185.918 230.707C182.088 226.876 177.54 223.838 172.536 221.765C167.531 219.692 162.167 218.625 156.75 218.625Z" fill="black"/>
<path fill-rule="evenodd" clip-rule="evenodd" d="M156.75 193.875C165.502 193.875 173.896 190.398 180.085 184.21C186.273 178.021 189.75 169.627 189.75 160.875C189.75 152.123 186.273 143.729 180.085 137.54C173.896 131.352 165.502 127.875 156.75 127.875C147.998 127.875 139.604 131.352 133.415 137.54C127.227 143.729 123.75 152.123 123.75 160.875C123.75 169.627 127.227 178.021 133.415 184.21C139.604 190.398 147.998 193.875 156.75 193.875ZM156.75 210.375C169.878 210.375 182.469 205.16 191.752 195.877C201.035 186.594 206.25 174.003 206.25 160.875C206.25 147.747 201.035 135.156 191.752 125.873C182.469 116.59 169.878 111.375 156.75 111.375C143.622 111.375 131.031 116.59 121.748 125.873C112.465 135.156 107.25 147.747 107.25 160.875C107.25 174.003 112.465 186.594 121.748 195.877C131.031 205.16 143.622 210.375 156.75 210.375Z" fill="black"/>
</svg>
