<svg width="48" height="48" viewBox="0 0 48 48" fill="none" xmlns="http://www.w3.org/2000/svg">
<g filter="url(#filter0_d_274_224)">
<circle cx="22" cy="22" r="20" fill="#D9D9D9"/>
<circle cx="22" cy="22" r="21" stroke="#B36F45" stroke-width="2"/>
</g>
<path d="M29.9311 15.0255C29.7665 14.9406 29.6063 14.8473 29.4512 14.746C29 14.448 28.5864 14.0966 28.2195 13.6995C27.2997 12.6476 26.9563 11.5805 26.8306 10.8341H26.835C26.7299 10.2133 26.7732 9.8125 26.7808 9.8125H22.5937V26.0007C22.5952 26.2174 22.5923 26.4323 22.5851 26.6453L22.5807 26.7244C22.5807 26.736 22.5796 26.7479 22.5775 26.7602V26.7699C22.5335 27.3506 22.3475 27.9116 22.0358 28.4035C21.7241 28.8954 21.2963 29.3032 20.79 29.5909C20.2623 29.8926 19.6645 30.0503 19.0566 30.0481C17.1066 30.0481 15.525 28.4578 15.525 26.4937C15.525 24.5296 17.1066 22.9382 19.0566 22.9382C19.4261 22.9382 19.7933 22.9967 20.1443 23.1115L20.1497 18.8475C19.0837 18.7101 18.0009 18.7951 16.9694 19.0972C15.9379 19.3992 14.9802 19.9118 14.1567 20.6025C13.4353 21.2295 12.8286 21.9773 12.3638 22.8125C12.1872 23.1169 11.5199 24.3422 11.4397 26.329C11.3888 27.4557 11.7279 28.6257 11.8893 29.1078V29.1186C11.9901 29.4024 12.3844 30.3731 13.0257 31.191C13.5434 31.847 14.1544 32.4237 14.8392 32.9027V32.8918L14.849 32.9027C16.8748 34.2785 19.1227 34.1886 19.1227 34.1886C19.5116 34.1723 20.8149 34.1886 22.2947 33.4877C23.936 32.7098 24.8698 31.5518 24.8698 31.5518C25.4674 30.86 25.9422 30.0712 26.2738 29.2193C26.653 28.2227 26.7786 27.0288 26.7786 26.5522V17.9624C26.8296 17.9928 27.5066 18.4402 27.5066 18.4402C27.5066 18.4402 28.4816 19.0653 30.0016 19.4715C31.0914 19.7608 32.5615 19.8225 32.5615 19.8225V15.6658C32.0469 15.7221 31.0015 15.5596 29.9301 15.0266" fill="#B36F45"/>
<defs>
<filter id="filter0_d_274_224" x="0" y="0" width="48" height="48" filterUnits="userSpaceOnUse" color-interpolation-filters="sRGB">
<feFlood flood-opacity="0" result="BackgroundImageFix"/>
<feColorMatrix in="SourceAlpha" type="matrix" values="0 0 0 0 0 0 0 0 0 0 0 0 0 0 0 0 0 0 127 0" result="hardAlpha"/>
<feMorphology radius="1" operator="dilate" in="SourceAlpha" result="effect1_dropShadow_274_224"/>
<feOffset dx="2" dy="2"/>
<feGaussianBlur stdDeviation="0.5"/>
<feComposite in2="hardAlpha" operator="out"/>
<feColorMatrix type="matrix" values="0 0 0 0 0 0 0 0 0 0 0 0 0 0 0 0 0 0 0.25 0"/>
<feBlend mode="normal" in2="BackgroundImageFix" result="effect1_dropShadow_274_224"/>
<feBlend mode="normal" in="SourceGraphic" in2="effect1_dropShadow_274_224" result="shape"/>
</filter>
</defs>
</svg>
