<svg width="48" height="48" viewBox="0 0 48 48" fill="none" xmlns="http://www.w3.org/2000/svg">
<g filter="url(#filter0_d_274_225)">
<circle cx="22" cy="22" r="20" fill="#D9D9D9"/>
<circle cx="22" cy="22" r="21" stroke="#B36F45" stroke-width="2"/>
</g>
<path d="M19.6666 25.4997L25.7216 21.9997L19.6666 18.4997V25.4997ZM33.1532 16.3647C33.3049 16.913 33.4099 17.648 33.4799 18.5813C33.5616 19.5147 33.5966 20.3197 33.5966 21.0197L33.6666 21.9997C33.6666 24.5547 33.4799 26.433 33.1532 27.6347C32.8616 28.6847 32.1849 29.3613 31.1349 29.653C30.5866 29.8047 29.5833 29.9097 28.0433 29.9797C26.5266 30.0613 25.1383 30.0963 23.8549 30.0963L21.9999 30.1663C17.1116 30.1663 14.0666 29.9797 12.8649 29.653C11.8149 29.3613 11.1383 28.6847 10.8466 27.6347C10.6949 27.0863 10.5899 26.3513 10.5199 25.418C10.4383 24.4847 10.4033 23.6797 10.4033 22.9797L10.3333 21.9997C10.3333 19.4447 10.5199 17.5663 10.8466 16.3647C11.1383 15.3147 11.8149 14.638 12.8649 14.3463C13.4133 14.1947 14.4166 14.0897 15.9566 14.0197C17.4733 13.938 18.8616 13.903 20.1449 13.903L21.9999 13.833C26.8883 13.833 29.9333 14.0197 31.1349 14.3463C32.1849 14.638 32.8616 15.3147 33.1532 16.3647Z" fill="#B36F45"/>
<defs>
<filter id="filter0_d_274_225" x="0" y="0" width="48" height="48" filterUnits="userSpaceOnUse" color-interpolation-filters="sRGB">
<feFlood flood-opacity="0" result="BackgroundImageFix"/>
<feColorMatrix in="SourceAlpha" type="matrix" values="0 0 0 0 0 0 0 0 0 0 0 0 0 0 0 0 0 0 127 0" result="hardAlpha"/>
<feMorphology radius="1" operator="dilate" in="SourceAlpha" result="effect1_dropShadow_274_225"/>
<feOffset dx="2" dy="2"/>
<feGaussianBlur stdDeviation="0.5"/>
<feComposite in2="hardAlpha" operator="out"/>
<feColorMatrix type="matrix" values="0 0 0 0 0 0 0 0 0 0 0 0 0 0 0 0 0 0 0.25 0"/>
<feBlend mode="normal" in2="BackgroundImageFix" result="effect1_dropShadow_274_225"/>
<feBlend mode="normal" in="SourceGraphic" in2="effect1_dropShadow_274_225" result="shape"/>
</filter>
</defs>
</svg>
